<svg width="48" height="48" viewBox="0 0 48 48" xmlns="http://www.w3.org/2000/svg" xmlns:xlink="http://www.w3.org/1999/xlink" overflow="hidden"><defs><filter id="타원_23" x="0" y="0" width="48" height="48" filterUnits="userSpaceOnUse" primitiveUnits="userSpaceOnUse"><feOffset dx="0" dy="2"/><feGaussianBlur result="blur" stdDeviation="3 3"/><feFlood flood-opacity="0.161"/><feComposite in2="blur" operator="in" k1="0" k2="0" k3="0" k4="0"/><feComposite in="SourceGraphic" operator="over" k1="0" k2="0" k3="0" k4="0"/></filter></defs><g><g id="타원_23-2" stroke="#707070" fill="#FFFFFF" transform="translate(9 7)"><circle cx="15" cy="15" r="15" stroke="none"/><circle cx="15" cy="15" r="14.5" fill="none"/></g></g><path d="M8.713 7.019C9.2867 6.02185 10.5601 5.67858 11.5573 6.25228 11.8761 6.43568 12.1406 6.70022 12.324 7.019L16.354 14C16.9328 14.9999 16.5914 16.2798 15.5914 16.8586 15.2746 17.042 14.9151 17.139 14.549 17.14L6.487 17.14C5.33162 17.1369 4.3975 16.1978 4.40057 15.0424 4.40155 14.6763 4.49859 14.3169 4.682 14Z" id="패스_17" fill="#FFC573" transform="matrix(6.12323e-17 1 -1 6.12323e-17 36.639 11.5)"/></svg>