<svg width="23.26" height="24.865" viewBox="0 0 23.26 24.865" xmlns="http://www.w3.org/2000/svg" xmlns:xlink="http://www.w3.org/1999/xlink" overflow="hidden"><g id="빼기_1" fill="#FF9889" transform="matrix(1 0 0 1 0 1170)"><path d="M12.9314-1146.13 10.4041-1146.13 9.57367-1147.85 9.38246-1148.25 8.9617-1148.38C7.95758-1148.68 7.01391-1149.15 6.1569-1149.77L5.85446-1149.99 5.48144-1149.96 3.38725-1149.78 2.10877-1152.03 2.79706-1153.08 3.08348-1153.51 2.89163-1154C2.43788-1155.14 2.2078-1156.35 2.2078-1157.6 2.2078-1158.21 2.26408-1158.82 2.37507-1159.41L2.45172-1159.81 2.21751-1160.16 1.17793-1161.67 2.45665-1163.93 3.9428-1163.83 4.42679-1163.79 4.75214-1164.15C4.96608-1164.39 5.19676-1164.62 5.43776-1164.84 6.30303-1165.64 7.31845-1166.24 8.54229-1166.69 8.68831-1166.74 8.837-1166.79 8.9846-1166.84L9.41852-1166.96 9.60822-1167.38 10.358-1169 12.8852-1169 13.6805-1167.35 13.8727-1166.96 14.2958-1166.83C15.9132-1166.35 17.3812-1165.43 18.5412-1164.16L18.8738-1163.8 19.364-1163.84 20.8102-1163.97 22.0887-1161.72 21.0608-1160.15 20.8389-1159.82 20.9132-1159.42C21.0249-1158.82 21.0815-1158.21 21.0815-1157.6 21.0815-1156.36 20.8545-1155.16 20.4068-1154.02L20.2124-1153.53 20.5119-1153.09 21.2042-1152.08 19.9255-1149.82 17.795-1149.97 17.4313-1149.99 17.137-1149.78C16.2824-1149.15 15.3404-1148.68 14.3373-1148.38L13.9073-1148.25 13.7189-1147.84 12.9314-1146.13ZM11.9178-1162.75C9.26523-1162.75 7.1072-1160.56 7.1072-1157.87 7.1072-1155.17 9.26523-1152.98 11.9178-1152.98 14.5704-1152.98 16.7284-1155.17 16.7284-1157.87 16.7284-1160.56 14.5704-1162.75 11.9178-1162.75Z"/><path d="M12.2918-1147.13 12.8111-1148.26 13.1878-1149.08 14.0479-1149.34C14.9427-1149.61 15.7834-1150.03 16.5468-1150.58L17.1353-1151.01 17.8628-1150.97 19.3661-1150.86 20.0264-1152.03 19.6865-1152.52 19.0875-1153.4 19.4765-1154.39C19.8779-1155.4 20.0815-1156.49 20.0815-1157.6 20.0815-1158.15 20.0306-1158.7 19.9303-1159.24L19.7817-1160.03 20.2255-1160.7 20.9169-1161.75 20.2572-1162.92 19.4499-1162.85 18.4696-1162.76 17.8043-1163.49C16.7666-1164.62 15.4548-1165.44 14.0107-1165.87L13.1644-1166.12 12.7802-1166.92 12.2579-1168 10.9977-1168 10.5161-1166.96 10.1368-1166.13 9.2689-1165.88C9.1415-1165.84 9.0131-1165.8 8.88648-1165.75 7.78778-1165.35 6.88094-1164.81 6.11363-1164.11 5.89551-1163.91 5.687-1163.7 5.49388-1163.48L4.84318-1162.76 3.87519-1162.83 3.01611-1162.89 2.35587-1161.72 3.04273-1160.72 3.51113-1160.04 3.35783-1159.22C3.25828-1158.69 3.2078-1158.15 3.2078-1157.6 3.2078-1156.48 3.4142-1155.39 3.82126-1154.37L4.20495-1153.4 3.63211-1152.53 3.28065-1152 3.94041-1150.83 5.39547-1150.96 6.14153-1151.02 6.7464-1150.58C7.51199-1150.02 8.35435-1149.6 9.2501-1149.33L10.0916-1149.08 10.474-1148.29 11.0315-1147.13 12.2918-1147.13M11.9178-1163.75C15.1218-1163.75 17.7284-1161.11 17.7284-1157.87 17.7284-1154.62 15.1218-1151.98 11.9178-1151.98 8.71382-1151.98 6.1072-1154.62 6.1072-1157.87 6.1072-1161.11 8.71382-1163.75 11.9178-1163.75M13.5711-1145.13 13.5705-1145.13 9.7767-1145.13 8.6733-1147.42C7.56081-1147.75 6.51563-1148.27 5.5674-1148.97L2.8341-1148.73 0.9369-1152.07 1.96201-1153.63C1.46152-1154.89 1.2078-1156.23 1.2078-1157.6 1.2078-1158.27 1.26987-1158.94 1.3923-1159.59L-2.28882e-08-1161.62 1.8972-1164.97 4.0104-1164.82C4.24562-1165.08 4.49873-1165.34 4.7619-1165.58 5.72516-1166.46 6.84915-1167.13 8.1981-1167.63 8.36339-1167.69 8.53236-1167.75 8.7003-1167.8L9.7182-1170 13.5126-1170 14.5809-1167.79C16.3715-1167.26 17.996-1166.24 19.278-1164.84L21.3633-1165.02 23.2605-1161.68 21.8961-1159.6C22.0192-1158.95 22.0815-1158.27 22.0815-1157.6 22.0815-1156.23 21.8311-1154.91 21.3372-1153.65L22.3821-1152.13 20.4849-1148.78 17.7273-1148.97C16.7811-1148.28 15.7377-1147.76 14.6268-1147.42L13.5714-1145.14 13.5711-1145.13ZM11.9178-1161.75C9.81663-1161.75 8.1072-1160.01 8.1072-1157.87 8.1072-1155.73 9.81663-1153.98 11.9178-1153.98 14.019-1153.98 15.7284-1155.73 15.7284-1157.87 15.7284-1160.01 14.019-1161.75 11.9178-1161.75Z" fill="#444444"/></g></svg>